<?xml version="1.0" encoding="UTF-8" standalone="yes"?>
<svg version="1.2" width="1000" height="1000" baseProfile="tiny-ps" xmlns="http://www.w3.org/2000/svg">
  <title>bimi-svg-tiny-12-ps</title>
  <path d="M0 0 C0.79696289 0.00161133 1.59392578 0.00322266 2.41503906 0.00488281 C14.11853469 0.24801042 22.7197389 5.65714472 31.25 13.375 C31.25 14.035 31.25 14.695 31.25 15.375 C32.24 15.705 33.23 16.035 34.25 16.375 C34.25 17.035 34.25 17.695 34.25 18.375 C34.91 18.375 35.57 18.375 36.25 18.375 C45.05350244 28.73923417 51.99062127 41.90613582 57.25 54.375 C58.00373573 56.09960268 58.75910733 57.82349084 59.515625 59.546875 C60.34440344 61.44763188 61.17252139 63.34867689 62 65.25 C62.40154297 66.16668457 62.80308594 67.08336914 63.21679688 68.02783203 C63.59384766 68.90294434 63.97089844 69.77805664 64.359375 70.6796875 C64.86936035 71.8550708 64.86936035 71.8550708 65.38964844 73.05419922 C66.28943403 75.48137341 66.77986127 77.83355227 67.25 80.375 C67.81780225 81.88913935 68.42395767 83.38930789 69.0625 84.875 C71.54518922 90.91980854 73.39578903 97.11412864 75.25 103.375 C75.50652344 104.21933594 75.76304687 105.06367187 76.02734375 105.93359375 C77.99061525 112.39647128 79.84989326 118.88880101 81.68652344 125.38867188 C82.27812303 127.47413733 82.87744479 129.55730803 83.4765625 131.640625 C86.2484872 141.35625314 88.60505591 151.10353257 90.72753906 160.97949219 C91.46033175 164.33938091 92.23183482 167.6899868 93.00292969 171.04125977 C94.099458 175.81597783 95.17399432 180.59562398 96.25 185.375 C96.46881836 186.33905762 96.68763672 187.30311523 96.91308594 188.29638672 C104.11783947 220.21584992 109.98800556 252.54545031 114.87353516 284.89892578 C115.37618062 288.20491169 115.90476727 291.5065552 116.43261719 294.80859375 C117.76114189 303.12809549 119.02433872 311.45671297 120.24829102 319.79223633 C120.82306537 323.6766305 121.42574289 327.53365083 122.25 331.375 C122.83007812 330.36179687 122.83007812 330.36179687 123.421875 329.328125 C124.20304688 327.99007812 124.20304688 327.99007812 125 326.625 C125.51046875 325.74328125 126.0209375 324.8615625 126.546875 323.953125 C128.23018362 321.40499728 130.06229536 319.48978115 132.25 317.375 C133.48512079 315.24190808 133.48512079 315.24190808 134.25 313.375 C134.91 313.375 135.57 313.375 136.25 313.375 C136.559375 312.59125 136.86875 311.8075 137.1875 311 C138.25 308.375 138.25 308.375 139.25 306.375 C139.91 306.375 140.57 306.375 141.25 306.375 C141.476875 305.86066406 141.70375 305.34632813 141.9375 304.81640625 C143.75529817 301.43508525 145.99546057 298.4141021 148.25 295.3125 C151.81238402 290.38755555 151.81238402 290.38755555 155.25 285.375 C155.91 285.375 156.57 285.375 157.25 285.375 C157.58 284.055 157.91 282.735 158.25 281.375 C158.91 281.375 159.57 281.375 160.25 281.375 C160.25 280.385 160.25 279.395 160.25 278.375 C161.54103643 277.0006709 162.8756709 275.66603643 164.25 274.375 C164.58 273.715 164.91 273.055 165.25 272.375 C165.91 272.375 166.57 272.375 167.25 272.375 C167.58 271.055 167.91 269.735 168.25 268.375 C168.91 268.375 169.57 268.375 170.25 268.375 C170.559375 267.75625 170.86875 267.1375 171.1875 266.5 C171.875 265.125 172.5625 263.75 173.25 262.375 C173.91 262.375 174.57 262.375 175.25 262.375 C175.476875 261.85421875 175.70375 261.3334375 175.9375 260.796875 C177.72519361 257.49815465 179.96890324 254.59042579 182.25 251.625 C182.70117188 251.02300781 183.15234375 250.42101562 183.6171875 249.80078125 C184.77822502 248.28593644 186.00927939 246.82530179 187.25 245.375 C187.91 245.375 188.57 245.375 189.25 245.375 C189.4975 244.818125 189.745 244.26125 190 243.6875 C191.47924818 240.95089087 193.18467439 238.69849131 195.25 236.375 C195.91 236.375 196.57 236.375 197.25 236.375 C197.559375 235.75625 197.86875 235.1375 198.1875 234.5 C198.875 233.125 199.5625 231.75 200.25 230.375 C200.91 230.375 201.57 230.375 202.25 230.375 C202.4975 229.818125 202.745 229.26125 203 228.6875 C205.09162704 224.81798998 207.91305466 221.25690734 211.25 218.375 C211.91 218.375 212.57 218.375 213.25 218.375 C213.58 217.385 213.91 216.395 214.25 215.375 C214.91 215.375 215.57 215.375 216.25 215.375 C216.25 214.715 216.25 214.055 216.25 213.375 C216.91 213.375 217.57 213.375 218.25 213.375 C218.58 212.385 218.91 211.395 219.25 210.375 C219.91 210.375 220.57 210.375 221.25 210.375 C221.518125 209.735625 221.78625 209.09625 222.0625 208.4375 C223.25 206.375 223.25 206.375 226.25 205.375 C226.25 204.715 226.25 204.055 226.25 203.375 C226.91 203.375 227.57 203.375 228.25 203.375 C228.58 202.385 228.91 201.395 229.25 200.375 C234.71511628 195.375 234.71511628 195.375 237.25 195.375 C237.54390625 194.54935547 237.54390625 194.54935547 237.84375 193.70703125 C239.84192443 190.39339199 242.71109316 188.36467791 245.75 186.0625 C246.69721924 185.33401855 246.69721924 185.33401855 247.66357422 184.59082031 C265.72775308 170.78000538 284.59076849 157.91464037 308.34765625 160.61328125 C314.53896911 161.87188489 319.85013271 165.21845993 325.25 168.375 C325.25 169.035 325.25 169.695 325.25 170.375 C326.24 170.705 327.23 171.035 328.25 171.375 C328.25 172.035 328.25 172.695 328.25 173.375 C329.24 173.705 330.23 174.035 331.25 174.375 C332.74746617 176.8391473 334.04937153 179.23234333 335.3125 181.8125 C335.66376953 182.48732422 336.01503906 183.16214844 336.37695312 183.85742188 C341.35504508 193.8606577 341.61048877 203.85357906 341.5625 214.875 C341.55976578 215.86993973 341.55976578 215.86993973 341.55697632 216.88497925 C341.50716767 227.67106646 340.68601675 237.87096926 338.25 248.375 C337.96068604 249.67219971 337.96068604 249.67219971 337.66552734 250.99560547 C335.0271518 262.78448819 331.98846586 274.36580084 328.11328125 285.8125 C327.47571439 287.70500615 326.84986449 289.60146901 326.23046875 291.5 C321.25725133 306.66914478 315.99864461 321.75189397 309.54296875 336.359375 C308.34643649 339.15007863 307.3062246 341.94453533 306.3125 344.8125 C303.15057489 353.74493843 298.85816426 362.25527016 294.5625 370.6875 C292.9904163 373.78587856 291.6206813 376.88202379 290.375 380.125 C288.05386091 386.08568517 285.14276909 391.73532602 282.23828125 397.42626953 C281.18868629 399.4959007 280.1551008 401.57294483 279.125 403.65234375 C278.77083008 404.36632324 278.41666016 405.08030273 278.05175781 405.81591797 C277.36765394 407.19587679 276.68465129 408.57638228 276.00292969 409.95751953 C274.22641843 413.52778091 272.35613278 416.98828648 270.25 420.375 C270.86593018 420.39481934 271.48186035 420.41463867 272.11645508 420.43505859 C288.86698823 420.99305004 305.5465842 422.01083257 322.25 423.375 C323.22114746 423.45363281 324.19229492 423.53226562 325.19287109 423.61328125 C455.68286762 434.28213252 455.68286762 434.28213252 489.25 457.375 C490.075 457.931875 490.9 458.48875 491.75 459.0625 C492.245 459.495625 492.74 459.92875 493.25 460.375 C493.25 461.035 493.25 461.695 493.25 462.375 C494.24 462.705 495.23 463.035 496.25 463.375 C500.76303287 468.91958324 500.69132346 473.97726832 500.68359375 480.97265625 C500.05486894 485.90616358 497.97416677 489.28874984 495.25 493.375 C494.59 493.375 493.93 493.375 493.25 493.375 C493.00507812 493.9628125 492.76015625 494.550625 492.5078125 495.15625 C488.8229152 501.65631728 480.85063786 505.39958293 474.25 508.375 C473.32832031 508.82488281 472.40664063 509.27476562 471.45703125 509.73828125 C457.58238567 516.40845248 443.14761703 520.84472896 428.31347656 524.80908203 C425.33674334 525.62546485 422.39074915 526.54035457 419.4375 527.4375 C412.60978712 529.40995039 405.69525184 530.72136605 398.70776367 531.98071289 C394.23631696 532.78749805 389.85493334 533.70909944 385.453125 534.84814453 C380.57370114 536.0150103 375.62182767 536.85105905 370.6875 537.75 C369.50816895 537.96624023 368.32883789 538.18248047 367.11376953 538.40527344 C359.28826158 539.83458037 351.45931957 541.24479378 343.625 542.625 C342.70904053 542.78790527 341.79308105 542.95081055 340.84936523 543.11865234 C335.32747908 544.08026886 329.82672302 544.80940943 324.25 545.375 C324.91 545.82875 325.57 546.2825 326.25 546.75 C326.91 547.28625 327.57 547.8225 328.25 548.375 C328.25 549.035 328.25 549.695 328.25 550.375 C329.9 550.705 331.55 551.035 333.25 551.375 C333.25 552.035 333.25 552.695 333.25 553.375 C334.24 553.375 335.23 553.375 336.25 553.375 C336.25 554.035 336.25 554.695 336.25 555.375 C337.9 555.705 339.55 556.035 341.25 556.375 C341.25 557.035 341.25 557.695 341.25 558.375 C341.98138184 558.63925781 342.71276367 558.90351562 343.46630859 559.17578125 C346.25556481 560.37739733 348.36566667 561.74404286 350.7890625 563.5625 C352.03042969 564.48675781 352.03042969 564.48675781 353.296875 565.4296875 C354.14765625 566.07164062 354.9984375 566.71359375 355.875 567.375 C357.57517209 568.64629985 359.27567874 569.91715244 360.9765625 571.1875 C361.72502441 571.75082031 362.47348633 572.31414063 363.24462891 572.89453125 C364.87953724 574.10150521 366.55913307 575.24775538 368.25 576.375 C368.25 577.035 368.25 577.695 368.25 578.375 C368.83910156 578.63667969 369.42820312 578.89835938 370.03515625 579.16796875 C372.36785434 580.4392275 373.85354368 581.77730531 375.6875 583.6875 C376.2959375 584.3165625 376.904375 584.945625 377.53125 585.59375 C378.0984375 586.1815625 378.665625 586.769375 379.25 587.375 C380.054375 588.138125 380.85875 588.90125 381.6875 589.6875 C387.36090625 595.63765777 392.53785191 601.53990552 395.25 609.375 C395.641875 610.32375 396.03375 611.2725 396.4375 612.25 C398.28567597 619.35836912 397.69123266 625.86270713 394.25 632.375 C391.63399872 636.4293525 388.9879281 639.02130626 384.25 640.375 C384.25 641.035 384.25 641.695 384.25 642.375 C377.09135904 644.93763391 370.70921313 645.86116402 363.125 645.75 C362.11800049 645.74057373 361.11100098 645.73114746 360.07348633 645.72143555 C351.53799617 645.55060323 343.53410958 644.50267859 335.25 642.375 C334.49283691 642.18212402 333.73567383 641.98924805 332.95556641 641.79052734 C325.62625159 639.89309051 318.39660469 637.88949931 311.32617188 635.16943359 C309.09181247 634.31447058 306.84517631 633.50031024 304.59375 632.69140625 C303.79839844 632.40330078 303.00304687 632.11519531 302.18359375 631.81835938 C300.56244435 631.23157095 298.94004305 630.64822966 297.31640625 630.06835938 C292.73740933 628.40225758 288.37699465 626.55220668 284.05664062 624.2956543 C281.18518991 622.83237854 278.22398764 621.61416152 275.25 620.375 C278.93632216 626.59988834 282.72591067 632.74555522 286.63671875 638.83203125 C289.24883597 642.94943636 291.46042037 646.83785015 293.25 651.375 C294.47892598 653.9378759 295.77354347 656.46689668 297.0625 659 C310.43287559 685.55730698 320.96339911 714.03611558 326.25 743.375 C326.45496094 744.45523438 326.65992188 745.53546875 326.87109375 746.6484375 C331.0905355 772.54707999 329.80915193 800.67277478 314.359375 822.71484375 C311.3627252 826.49395211 308.08973689 829.47958864 304.25 832.375 C303.69828125 832.82230469 303.1465625 833.26960937 302.578125 833.73046875 C293.02797733 841.12046397 281.13142782 844.14444259 269.76708984 847.60009766 C267.29188221 848.36210629 264.82676306 849.15018473 262.36328125 849.94921875 C254.44124001 852.51412219 246.54904193 854.89623441 238.44848633 856.83642578 C232.83479957 858.19171725 227.2955653 859.76528645 221.75 861.375 C215.54474984 863.17303302 209.33915366 864.9061263 203.0625 866.4375 C195.79266458 868.21424185 188.5897794 870.18967459 181.38671875 872.21875 C178.01809252 873.16701255 174.63738858 874.05840339 171.25 874.9375 C162.00583651 877.47511351 153.37703412 881.60645 144.66967773 885.55737305 C140.58352131 887.39873973 136.54085068 889.04948243 132.25 890.375 C132.25 891.035 132.25 891.695 132.25 892.375 C126.5 895.375 126.5 895.375 124.25 895.375 C124.25 896.035 124.25 896.695 124.25 897.375 C122.0319207 899.03249915 119.82107612 900.56112024 117.5 902.0625 C116.81260742 902.51093262 116.12521484 902.95936523 115.41699219 903.42138672 C113.36765214 904.74941613 111.31012318 906.06377888 109.25 907.375 C108.26 908.01308594 107.27 908.65117188 106.25 909.30859375 C84.93855067 922.41634597 59.41328062 929.60504572 35.25 935.375 C34.43144531 935.57109863 33.61289062 935.76719727 32.76953125 935.96923828 C30.30705624 936.55288304 27.84212224 937.1238447 25.375 937.6875 C24.63137207 937.85926758 23.88774414 938.03103516 23.12158203 938.20800781 C19.33206536 939.04662111 16.17789433 939.375 12.25 939.375 C12.25 959.505 12.25 979.635 12.25 1000.375 C3.34 1000.375 -5.57 1000.375 -14.75 1000.375 C-14.75 980.245 -14.75 960.115 -14.75 939.375 C-23 937.725 -31.25 936.075 -39.75 934.375 C-45.80847595 932.81944536 -51.78470437 931.22494045 -57.75 929.375 C-59.0181958 928.98441406 -59.0181958 928.98441406 -60.31201172 928.5859375 C-71.90908172 924.97411581 -82.89039207 920.80480397 -93.75 915.375 C-95.21179688 914.70597656 -95.21179688 914.70597656 -96.703125 914.0234375 C-103.33125936 910.9266862 -109.40312276 907.14495176 -115.5 903.125 C-116.31186768 902.59302002 -117.12373535 902.06104004 -117.96020508 901.51293945 C-118.71068115 901.00851318 -119.46115723 900.50408691 -120.234375 899.984375 C-120.91209961 899.53030273 -121.58982422 899.07623047 -122.28808594 898.60839844 C-122.77051758 898.20137695 -123.25294922 897.79435547 -123.75 897.375 C-123.75 896.715 -123.75 896.055 -123.75 895.375 C-125.4 895.045 -127.05 894.715 -128.75 894.375 C-128.75 893.715 -128.75 893.055 -128.75 892.375 C-129.74 892.375 -130.73 892.375 -131.75 892.375 C-131.75 891.715 -131.75 891.055 -131.75 890.375 C-132.97396484 889.99794922 -132.97396484 889.99794922 -134.22265625 889.61328125 C-138.33934877 888.16810791 -142.22765763 886.38504829 -146.1875 884.5625 C-154.24188399 880.92400461 -162.3008296 877.9904305 -170.75 875.375 C-172.1059091 874.94017284 -173.46136826 874.50394046 -174.81640625 874.06640625 C-182.72779897 871.52767575 -190.66735093 869.30476742 -198.75 867.375 C-208.78071712 864.94074009 -218.74523497 862.46991545 -228.58203125 859.328125 C-232.092076 858.27208194 -235.62223723 857.41326038 -239.1875 856.5625 C-248.5799861 854.29262053 -257.73010756 851.30989014 -266.90673828 848.29833984 C-269.73201315 847.38084117 -272.5654842 846.4942293 -275.40234375 845.61328125 C-288.33405094 841.54292848 -299.86178387 837.03848395 -309.75 827.375 C-309.75 826.715 -309.75 826.055 -309.75 825.375 C-310.41 825.375 -311.07 825.375 -311.75 825.375 C-319.75345676 816.97254393 -323.37063968 806.474097 -325.75 795.375 C-326.00487183 794.43998657 -326.00487183 794.43998657 -326.26489258 793.48608398 C-328.06137658 786.53482022 -328.09482182 779.7121804 -328.0625 772.5625 C-328.05512817 770.63579468 -328.05512817 770.63579468 -328.04760742 768.67016602 C-327.66376616 737.18927769 -318.31889855 704.11381568 -304.42578125 675.9296875 C-303.12283762 673.16586768 -301.97926346 670.44554553 -300.87890625 667.6015625 C-298.73269061 662.16023532 -296.11913032 657.03548953 -293.375 651.875 C-292.91867187 651.00230469 -292.46234375 650.12960937 -291.9921875 649.23046875 C-289.18354047 643.90508463 -286.20897161 638.71554633 -283.06005859 633.58398438 C-281.85506347 631.55215511 -280.7763222 629.50160265 -279.75 627.375 C-279.09 627.375 -278.43 627.375 -277.75 627.375 C-277.564375 626.4778125 -277.564375 626.4778125 -277.375 625.5625 C-276.75 623.375 -276.75 623.375 -274.75 620.375 C-276.2659375 621.179375 -276.2659375 621.179375 -277.8125 622 C-302.97311206 634.42925604 -333.88968971 645.47874271 -362.0625 645.625 C-363.04412109 645.645625 -364.02574219 645.66625 -365.03710938 645.6875 C-371.76667748 645.72312975 -377.42840216 644.67881716 -383.75 642.375 C-383.75 641.715 -383.75 641.055 -383.75 640.375 C-384.45125 640.189375 -385.1525 640.00375 -385.875 639.8125 C-390.76294909 637.36852546 -393.74802798 633.42448822 -396.125 628.5625 C-398.06672468 618.65970413 -396.4760902 610.32340654 -391 601.875 C-382.02962515 589.12409311 -382.02962515 589.12409311 -377.75 585.375 C-377.09 585.375 -376.43 585.375 -375.75 585.375 C-375.75 584.715 -375.75 584.055 -375.75 583.375 C-370.27380952 578.375 -370.27380952 578.375 -367.75 578.375 C-367.75 577.715 -367.75 577.055 -367.75 576.375 C-366.08520508 574.89453125 -366.08520508 574.89453125 -363.76953125 573.1875 C-362.93486328 572.57132813 -362.10019531 571.95515625 -361.24023438 571.3203125 C-359.91475586 570.35738281 -359.91475586 570.35738281 -358.5625 569.375 C-357.26602539 568.41207031 -357.26602539 568.41207031 -355.94335938 567.4296875 C-351.96027177 564.51180876 -348.42044442 562.06752654 -343.75 560.375 C-343.75 559.715 -343.75 559.055 -343.75 558.375 C-342.76 558.375 -341.77 558.375 -340.75 558.375 C-340.75 557.715 -340.75 557.055 -340.75 556.375 C-339.80125 555.859375 -338.8525 555.34375 -337.875 554.8125 C-332.9382273 552.00452046 -328.36272822 548.67908702 -323.75 545.375 C-324.85730469 545.21644531 -325.96460938 545.05789063 -327.10546875 544.89453125 C-342.36964312 542.67381268 -357.56175694 540.06216836 -372.75 537.375 C-374.06798584 537.14248535 -374.06798584 537.14248535 -375.41259766 536.90527344 C-382.85101112 535.58406878 -390.20272911 534.09087606 -397.515625 532.18359375 C-400.69333907 531.38916523 -403.87924244 530.6834386 -407.08105469 529.99487305 C-430.96664307 524.84203273 -454.6089448 517.79432009 -476.75 507.375 C-476.75 506.715 -476.75 506.055 -476.75 505.375 C-477.45511719 505.30152344 -478.16023438 505.22804688 -478.88671875 505.15234375 C-482.56480428 504.1537912 -484.64900782 502.37516079 -487.5625 499.9375 C-488.53832031 499.13441406 -489.51414062 498.33132813 -490.51953125 497.50390625 C-491.25558594 496.80136719 -491.99164063 496.09882813 -492.75 495.375 C-492.75 494.715 -492.75 494.055 -492.75 493.375 C-493.41 493.375 -494.07 493.375 -494.75 493.375 C-499.30288961 489.05665319 -500.19916211 484.0120605 -500.4375 477.9375 C-500.1826371 470.81549779 -498.63606366 466.52107591 -493.75 461.375 C-492.95529297 460.53388672 -492.95529297 460.53388672 -492.14453125 459.67578125 C-475.5154664 443.99469159 -446.44698843 439.98528325 -424.83447266 435.95263672 C-422.05705416 435.43250278 -419.28442339 434.89220928 -416.51171875 434.34765625 C-386.15500308 428.55414739 -355.2050872 426.10165766 -324.4375 423.625 C-323.44113085 423.54438765 -323.44113085 423.54438765 -322.42463303 423.46214676 C-308.28242022 422.31898047 -294.14991574 421.20934567 -279.96818542 420.70367432 C-276.67688785 420.57706236 -273.89323805 420.42274602 -270.75 419.375 C-271.306875 418.34503906 -271.86375 417.31507813 -272.4375 416.25390625 C-277.88588898 406.10970807 -282.95822825 395.84427858 -287.75 385.375 C-288.21148437 384.36695313 -288.67296875 383.35890625 -289.1484375 382.3203125 C-289.94784592 380.56365069 -290.74484139 378.80588819 -291.5390625 377.046875 C-292.9278376 373.98260995 -294.33789722 370.92858267 -295.75 367.875 C-296.25402344 366.781875 -296.75804687 365.68875 -297.27734375 364.5625 C-298.20236289 362.56033656 -299.13144625 360.56004065 -300.06640625 358.5625 C-302.79634643 352.67472932 -305.19942611 346.71378147 -307.49609375 340.64453125 C-310.05116794 333.98223501 -312.7970384 327.40425164 -315.8125 320.9375 C-317.86741821 316.38201867 -319.25208321 311.67798592 -320.625 306.87890625 C-321.507964 304.12884129 -322.4835717 301.56380802 -323.59375 298.90625 C-326.31726853 292.19895518 -328.26507153 285.26429575 -330.25 278.3125 C-330.4473172 277.62624542 -330.6446344 276.93999084 -330.84793091 276.23294067 C-336.69062065 255.89364575 -341.19696728 236.29009047 -341.1875 215 C-341.18860275 213.91415115 -341.18860275 213.91415115 -341.18972778 212.80636597 C-341.14989114 197.86597345 -339.66836586 183.75745747 -328.75 172.375 C-326.53515625 171.1171875 -326.53515625 171.1171875 -324.75 170.375 C-324.75 169.715 -324.75 169.055 -324.75 168.375 C-317.14073614 161.93475713 -307.62123426 159.77862791 -297.87109375 160.1015625 C-283.25763779 161.38184024 -269.64663318 167.94821817 -257.75 176.375 C-257.75 177.035 -257.75 177.695 -257.75 178.375 C-257.09 178.58125 -256.43 178.7875 -255.75 179 C-251.67819814 180.86624252 -248.06203002 183.35061527 -244.75 186.375 C-244.75 187.035 -244.75 187.695 -244.75 188.375 C-243.88375 188.7771875 -243.88375 188.7771875 -243 189.1875 C-240.69449957 190.40429189 -238.72943808 191.67833879 -236.75 193.375 C-236.75 194.035 -236.75 194.695 -236.75 195.375 C-236.16734375 195.643125 -235.5846875 195.91125 -234.984375 196.1875 C-232.72213399 197.38980991 -230.94423682 198.71325913 -229 200.375 C-228.38640625 200.890625 -227.7728125 201.40625 -227.140625 201.9375 C-225.75 203.375 -225.75 203.375 -225.75 205.375 C-225.09 205.375 -224.43 205.375 -223.75 205.375 C-222.125 206.75 -222.125 206.75 -220.75 208.375 C-220.75 209.035 -220.75 209.695 -220.75 210.375 C-219.76 210.705 -218.77 211.035 -217.75 211.375 C-217.75 212.035 -217.75 212.695 -217.75 213.375 C-217.09 213.375 -216.43 213.375 -215.75 213.375 C-214.09375 214.984375 -214.09375 214.984375 -212.25 217.125 C-211.6415625 217.82109375 -211.033125 218.5171875 -210.40625 219.234375 C-208.75 221.375 -208.75 221.375 -207.71875 223.578125 C-206.8226576 225.73132919 -206.8226576 225.73132919 -203.75 226.375 C-201.92578125 228.15234375 -201.92578125 228.15234375 -200.0625 230.3125 C-199.12857422 231.37791016 -199.12857422 231.37791016 -198.17578125 232.46484375 C-196.75 234.375 -196.75 234.375 -196.75 236.375 C-195.76 236.705 -194.77 237.035 -193.75 237.375 C-191.92578125 239.37109375 -191.92578125 239.37109375 -190.0625 241.8125 C-189.43988281 242.61558594 -188.81726563 243.41867188 -188.17578125 244.24609375 C-186.75 246.375 -186.75 246.375 -186.75 248.375 C-185.76 248.705 -184.77 249.035 -183.75 249.375 C-180.75 252.81944444 -180.75 252.81944444 -180.75 255.375 C-180.09 255.375 -179.43 255.375 -178.75 255.375 C-177.39721885 257.36189731 -176.06431695 259.36245218 -174.75 261.375 C-174.09 261.705 -173.43 262.035 -172.75 262.375 C-172.75 263.365 -172.75 264.355 -172.75 265.375 C-171.76 265.705 -170.77 266.035 -169.75 266.375 C-168.48242187 267.73510742 -168.48242187 267.73510742 -167.21875 269.48046875 C-166.74381104 270.12677246 -166.26887207 270.77307617 -165.77954102 271.43896484 C-165.27479248 272.13973145 -164.77004395 272.84049805 -164.25 273.5625 C-163.16682116 275.03883021 -162.0821578 276.51407226 -160.99609375 277.98828125 C-160.45065918 278.73029785 -159.90522461 279.47231445 -159.34326172 280.23681641 C-157.06501147 283.29426594 -154.69271732 286.27177115 -152.3125 289.25 C-141.53129947 302.83731992 -131.71721102 317.18743837 -121.75 331.375 C-120.58143978 325.3954525 -119.59329598 319.41796717 -118.8125 313.375 C-115.82210417 290.39495823 -111.95938807 267.42565018 -107.55859375 244.67578125 C-106.86575154 241.05480228 -106.22973878 237.42502398 -105.59765625 233.79296875 C-101.74001455 211.67066558 -101.74001455 211.67066558 -99.20166016 201.41137695 C-97.87006899 196.0116334 -96.75701083 190.58235185 -95.6875 185.125 C-93.60937807 174.54984672 -91.20393053 164.08347607 -88.5546875 153.63671875 C-87.80918569 150.61490316 -87.1105142 147.58488256 -86.42138672 144.54980469 C-82.60402149 127.88590763 -77.59490689 111.64449367 -72.1875 95.4375 C-71.95602264 94.74366211 -71.72454529 94.04982422 -71.48605347 93.33496094 C-62.26788322 65.77062838 -62.26788322 65.77062838 -56.75 54.375 C-56.46253906 53.77429687 -56.17507813 53.17359375 -55.87890625 52.5546875 C-50.15932427 40.64086942 -43.97751332 28.78038449 -35.75 18.375 C-35.09 18.375 -34.43 18.375 -33.75 18.375 C-33.42 17.385 -33.09 16.395 -32.75 15.375 C-32.09 15.375 -31.43 15.375 -30.75 15.375 C-30.3478125 14.4159375 -30.3478125 14.4159375 -29.9375 13.4375 C-28.75 11.375 -28.75 11.375 -25.75 10.375 C-25.75 9.715 -25.75 9.055 -25.75 8.375 C-24.04521409 7.41037025 -22.33598588 6.45358946 -20.625 5.5 C-19.67367188 4.96632813 -18.72234375 4.43265625 -17.7421875 3.8828125 C-11.72241718 0.84935122 -6.64330396 -0.01392726 0 0 Z " fill="#F6F6F6" transform="translate(499.75,-0.375)"/>
  <path d="M0 0 C0.79696289 0.00161133 1.59392578 0.00322266 2.41503906 0.00488281 C14.11853469 0.24801042 22.7197389 5.65714472 31.25 13.375 C31.25 14.035 31.25 14.695 31.25 15.375 C32.24 15.705 33.23 16.035 34.25 16.375 C34.25 17.035 34.25 17.695 34.25 18.375 C34.91 18.375 35.57 18.375 36.25 18.375 C45.05350244 28.73923417 51.99062127 41.90613582 57.25 54.375 C58.00373573 56.09960268 58.75910733 57.82349084 59.515625 59.546875 C60.34440344 61.44763188 61.17252139 63.34867689 62 65.25 C62.40154297 66.16668457 62.80308594 67.08336914 63.21679688 68.02783203 C63.59384766 68.90294434 63.97089844 69.77805664 64.359375 70.6796875 C64.86936035 71.8550708 64.86936035 71.8550708 65.38964844 73.05419922 C66.28943403 75.48137341 66.77986127 77.83355227 67.25 80.375 C67.81780225 81.88913935 68.42395767 83.38930789 69.0625 84.875 C71.54518922 90.91980854 73.39578903 97.11412864 75.25 103.375 C75.50652344 104.21933594 75.76304687 105.06367187 76.02734375 105.93359375 C77.99061525 112.39647128 79.84989326 118.88880101 81.68652344 125.38867188 C82.27812303 127.47413733 82.87744479 129.55730803 83.4765625 131.640625 C86.2484872 141.35625314 88.60505591 151.10353257 90.72753906 160.97949219 C91.46033175 164.33938091 92.23183482 167.6899868 93.00292969 171.04125977 C94.099458 175.81597783 95.17399432 180.59562398 96.25 185.375 C96.46881836 186.33905762 96.68763672 187.30311523 96.91308594 188.29638672 C104.11783947 220.21584992 109.98800556 252.54545031 114.87353516 284.89892578 C115.37618062 288.20491169 115.90476727 291.5065552 116.43261719 294.80859375 C117.76114189 303.12809549 119.02433872 311.45671297 120.24829102 319.79223633 C120.82306537 323.6766305 121.42574289 327.53365083 122.25 331.375 C122.83007812 330.36179687 122.83007812 330.36179687 123.421875 329.328125 C124.20304688 327.99007812 124.20304688 327.99007812 125 326.625 C125.51046875 325.74328125 126.0209375 324.8615625 126.546875 323.953125 C128.23018362 321.40499728 130.06229536 319.48978115 132.25 317.375 C133.48512079 315.24190808 133.48512079 315.24190808 134.25 313.375 C134.91 313.375 135.57 313.375 136.25 313.375 C136.559375 312.59125 136.86875 311.8075 137.1875 311 C138.25 308.375 138.25 308.375 139.25 306.375 C139.91 306.375 140.57 306.375 141.25 306.375 C141.476875 305.86066406 141.70375 305.34632813 141.9375 304.81640625 C143.75529817 301.43508525 145.99546057 298.4141021 148.25 295.3125 C151.81238402 290.38755555 151.81238402 290.38755555 155.25 285.375 C155.91 285.375 156.57 285.375 157.25 285.375 C157.58 284.055 157.91 282.735 158.25 281.375 C158.91 281.375 159.57 281.375 160.25 281.375 C160.25 280.385 160.25 279.395 160.25 278.375 C161.54103643 277.0006709 162.8756709 275.66603643 164.25 274.375 C164.58 273.715 164.91 273.055 165.25 272.375 C165.91 272.375 166.57 272.375 167.25 272.375 C167.58 271.055 167.91 269.735 168.25 268.375 C168.91 268.375 169.57 268.375 170.25 268.375 C170.559375 267.75625 170.86875 267.1375 171.1875 266.5 C171.875 265.125 172.5625 263.75 173.25 262.375 C173.91 262.375 174.57 262.375 175.25 262.375 C175.476875 261.85421875 175.70375 261.3334375 175.9375 260.796875 C177.72519361 257.49815465 179.96890324 254.59042579 182.25 251.625 C182.70117188 251.02300781 183.15234375 250.42101562 183.6171875 249.80078125 C184.77822502 248.28593644 186.00927939 246.82530179 187.25 245.375 C187.91 245.375 188.57 245.375 189.25 245.375 C189.4975 244.818125 189.745 244.26125 190 243.6875 C191.47924818 240.95089087 193.18467439 238.69849131 195.25 236.375 C195.91 236.375 196.57 236.375 197.25 236.375 C197.559375 235.75625 197.86875 235.1375 198.1875 234.5 C198.875 233.125 199.5625 231.75 200.25 230.375 C200.91 230.375 201.57 230.375 202.25 230.375 C202.4975 229.818125 202.745 229.26125 203 228.6875 C205.09162704 224.81798998 207.91305466 221.25690734 211.25 218.375 C211.91 218.375 212.57 218.375 213.25 218.375 C213.58 217.385 213.91 216.395 214.25 215.375 C214.91 215.375 215.57 215.375 216.25 215.375 C216.25 214.715 216.25 214.055 216.25 213.375 C216.91 213.375 217.57 213.375 218.25 213.375 C218.58 212.385 218.91 211.395 219.25 210.375 C219.91 210.375 220.57 210.375 221.25 210.375 C221.518125 209.735625 221.78625 209.09625 222.0625 208.4375 C223.25 206.375 223.25 206.375 226.25 205.375 C226.25 204.715 226.25 204.055 226.25 203.375 C226.91 203.375 227.57 203.375 228.25 203.375 C228.58 202.385 228.91 201.395 229.25 200.375 C234.71511628 195.375 234.71511628 195.375 237.25 195.375 C237.54390625 194.54935547 237.54390625 194.54935547 237.84375 193.70703125 C239.84192443 190.39339199 242.71109316 188.36467791 245.75 186.0625 C246.69721924 185.33401855 246.69721924 185.33401855 247.66357422 184.59082031 C265.72775308 170.78000538 284.59076849 157.91464037 308.34765625 160.61328125 C314.53896911 161.87188489 319.85013271 165.21845993 325.25 168.375 C325.25 169.035 325.25 169.695 325.25 170.375 C326.24 170.705 327.23 171.035 328.25 171.375 C328.25 172.035 328.25 172.695 328.25 173.375 C329.24 173.705 330.23 174.035 331.25 174.375 C332.74746617 176.8391473 334.04937153 179.23234333 335.3125 181.8125 C335.66376953 182.48732422 336.01503906 183.16214844 336.37695312 183.85742188 C341.35504508 193.8606577 341.61048877 203.85357906 341.5625 214.875 C341.55976578 215.86993973 341.55976578 215.86993973 341.55697632 216.88497925 C341.50716767 227.67106646 340.68601675 237.87096926 338.25 248.375 C337.96068604 249.67219971 337.96068604 249.67219971 337.66552734 250.99560547 C335.0271518 262.78448819 331.98846586 274.36580084 328.11328125 285.8125 C327.47571439 287.70500615 326.84986449 289.60146901 326.23046875 291.5 C321.25725133 306.66914478 315.99864461 321.75189397 309.54296875 336.359375 C308.34643649 339.15007863 307.3062246 341.94453533 306.3125 344.8125 C303.15057489 353.74493843 298.85816426 362.25527016 294.5625 370.6875 C292.9904163 373.78587856 291.6206813 376.88202379 290.375 380.125 C288.05386091 386.08568517 285.14276909 391.73532602 282.23828125 397.42626953 C281.18868629 399.4959007 280.1551008 401.57294483 279.125 403.65234375 C278.77083008 404.36632324 278.41666016 405.08030273 278.05175781 405.81591797 C277.36765394 407.19587679 276.68465129 408.57638228 276.00292969 409.95751953 C274.22641843 413.52778091 272.35613278 416.98828648 270.25 420.375 C270.86593018 420.39481934 271.48186035 420.41463867 272.11645508 420.43505859 C288.86698823 420.99305004 305.5465842 422.01083257 322.25 423.375 C323.22114746 423.45363281 324.19229492 423.53226562 325.19287109 423.61328125 C455.68286762 434.28213252 455.68286762 434.28213252 489.25 457.375 C490.075 457.931875 490.9 458.48875 491.75 459.0625 C492.245 459.495625 492.74 459.92875 493.25 460.375 C493.25 461.035 493.25 461.695 493.25 462.375 C494.24 462.705 495.23 463.035 496.25 463.375 C500.76303287 468.91958324 500.69132346 473.97726832 500.68359375 480.97265625 C500.05486894 485.90616358 497.97416677 489.28874984 495.25 493.375 C494.59 493.375 493.93 493.375 493.25 493.375 C493.00507812 493.9628125 492.76015625 494.550625 492.5078125 495.15625 C488.8229152 501.65631728 480.85063786 505.39958293 474.25 508.375 C473.32832031 508.82488281 472.40664063 509.27476562 471.45703125 509.73828125 C457.58238567 516.40845248 443.14761703 520.84472896 428.31347656 524.80908203 C425.33674334 525.62546485 422.39074915 526.54035457 419.4375 527.4375 C412.60978712 529.40995039 405.69525184 530.72136605 398.70776367 531.98071289 C394.23631696 532.78749805 389.85493334 533.70909944 385.453125 534.84814453 C380.57370114 536.0150103 375.62182767 536.85105905 370.6875 537.75 C369.50816895 537.96624023 368.32883789 538.18248047 367.11376953 538.40527344 C359.28826158 539.83458037 351.45931957 541.24479378 343.625 542.625 C342.70904053 542.78790527 341.79308105 542.95081055 340.84936523 543.11865234 C335.32747908 544.08026886 329.82672302 544.80940943 324.25 545.375 C324.91 545.82875 325.57 546.2825 326.25 546.75 C326.91 547.28625 327.57 547.8225 328.25 548.375 C328.25 549.035 328.25 549.695 328.25 550.375 C329.9 550.705 331.55 551.035 333.25 551.375 C333.25 552.035 333.25 552.695 333.25 553.375 C334.24 553.375 335.23 553.375 336.25 553.375 C336.25 554.035 336.25 554.695 336.25 555.375 C337.9 555.705 339.55 556.035 341.25 556.375 C341.25 557.035 341.25 557.695 341.25 558.375 C341.98138184 558.63925781 342.71276367 558.90351562 343.46630859 559.17578125 C346.25556481 560.37739733 348.36566667 561.74404286 350.7890625 563.5625 C352.03042969 564.48675781 352.03042969 564.48675781 353.296875 565.4296875 C354.14765625 566.07164062 354.9984375 566.71359375 355.875 567.375 C357.57517209 568.64629985 359.27567874 569.91715244 360.9765625 571.1875 C361.72502441 571.75082031 362.47348633 572.31414063 363.24462891 572.89453125 C364.87953724 574.10150521 366.55913307 575.24775538 368.25 576.375 C368.25 577.035 368.25 577.695 368.25 578.375 C368.83910156 578.63667969 369.42820312 578.89835938 370.03515625 579.16796875 C372.36785434 580.4392275 373.85354368 581.77730531 375.6875 583.6875 C376.2959375 584.3165625 376.904375 584.945625 377.53125 585.59375 C378.0984375 586.1815625 378.665625 586.769375 379.25 587.375 C380.054375 588.138125 380.85875 588.90125 381.6875 589.6875 C387.36090625 595.63765777 392.53785191 601.53990552 395.25 609.375 C395.641875 610.32375 396.03375 611.2725 396.4375 612.25 C398.28567597 619.35836912 397.69123266 625.86270713 394.25 632.375 C391.63399872 636.4293525 388.9879281 639.02130626 384.25 640.375 C384.25 641.035 384.25 641.695 384.25 642.375 C377.09135904 644.93763391 370.70921313 645.86116402 363.125 645.75 C362.11800049 645.74057373 361.11100098 645.73114746 360.07348633 645.72143555 C351.53799617 645.55060323 343.53410958 644.50267859 335.25 642.375 C334.49283691 642.18212402 333.73567383 641.98924805 332.95556641 641.79052734 C325.62625159 639.89309051 318.39660469 637.88949931 311.32617188 635.16943359 C309.09181247 634.31447058 306.84517631 633.50031024 304.59375 632.69140625 C303.79839844 632.40330078 303.00304687 632.11519531 302.18359375 631.81835938 C300.56244435 631.23157095 298.94004305 630.64822966 297.31640625 630.06835938 C292.73740933 628.40225758 288.37699465 626.55220668 284.05664062 624.2956543 C281.18518991 622.83237854 278.22398764 621.61416152 275.25 620.375 C278.93632216 626.59988834 282.72591067 632.74555522 286.63671875 638.83203125 C289.24883597 642.94943636 291.46042037 646.83785015 293.25 651.375 C294.47892598 653.9378759 295.77354347 656.46689668 297.0625 659 C310.43287559 685.55730698 320.96339911 714.03611558 326.25 743.375 C326.45496094 744.45523438 326.65992188 745.53546875 326.87109375 746.6484375 C331.0905355 772.54707999 329.80915193 800.67277478 314.359375 822.71484375 C311.3627252 826.49395211 308.08973689 829.47958864 304.25 832.375 C303.69828125 832.82230469 303.1465625 833.26960937 302.578125 833.73046875 C293.02797733 841.12046397 281.13142782 844.14444259 269.76708984 847.60009766 C267.29188221 848.36210629 264.82676306 849.15018473 262.36328125 849.94921875 C254.44124001 852.51412219 246.54904193 854.89623441 238.44848633 856.83642578 C232.83479957 858.19171725 227.2955653 859.76528645 221.75 861.375 C215.54474984 863.17303302 209.33915366 864.9061263 203.0625 866.4375 C195.79266458 868.21424185 188.5897794 870.18967459 181.38671875 872.21875 C178.01809252 873.16701255 174.63738858 874.05840339 171.25 874.9375 C162.00583651 877.47511351 153.37703412 881.60645 144.66967773 885.55737305 C140.58352131 887.39873973 136.54085068 889.04948243 132.25 890.375 C132.25 891.035 132.25 891.695 132.25 892.375 C126.5 895.375 126.5 895.375 124.25 895.375 C124.25 896.035 124.25 896.695 124.25 897.375 C122.0319207 899.03249915 119.82107612 900.56112024 117.5 902.0625 C116.81260742 902.51093262 116.12521484 902.95936523 115.41699219 903.42138672 C113.36765214 904.74941613 111.31012318 906.06377888 109.25 907.375 C108.26 908.01308594 107.27 908.65117188 106.25 909.30859375 C84.93855067 922.41634597 59.41328062 929.60504572 35.25 935.375 C34.43144531 935.57109863 33.61289062 935.76719727 32.76953125 935.96923828 C30.30705624 936.55288304 27.84212224 937.1238447 25.375 937.6875 C24.63137207 937.85926758 23.88774414 938.03103516 23.12158203 938.20800781 C19.33206536 939.04662111 16.17789433 939.375 12.25 939.375 C12.25 959.505 12.25 979.635 12.25 1000.375 C3.34 1000.375 -5.57 1000.375 -14.75 1000.375 C-14.75 980.245 -14.75 960.115 -14.75 939.375 C-23 937.725 -31.25 936.075 -39.75 934.375 C-45.80847595 932.81944536 -51.78470437 931.22494045 -57.75 929.375 C-59.0181958 928.98441406 -59.0181958 928.98441406 -60.31201172 928.5859375 C-71.90908172 924.97411581 -82.89039207 920.80480397 -93.75 915.375 C-95.21179688 914.70597656 -95.21179688 914.70597656 -96.703125 914.0234375 C-103.33125936 910.9266862 -109.40312276 907.14495176 -115.5 903.125 C-116.31186768 902.59302002 -117.12373535 902.06104004 -117.96020508 901.51293945 C-118.71068115 901.00851318 -119.46115723 900.50408691 -120.234375 899.984375 C-120.91209961 899.53030273 -121.58982422 899.07623047 -122.28808594 898.60839844 C-122.77051758 898.20137695 -123.25294922 897.79435547 -123.75 897.375 C-123.75 896.715 -123.75 896.055 -123.75 895.375 C-125.4 895.045 -127.05 894.715 -128.75 894.375 C-128.75 893.715 -128.75 893.055 -128.75 892.375 C-129.74 892.375 -130.73 892.375 -131.75 892.375 C-131.75 891.715 -131.75 891.055 -131.75 890.375 C-132.97396484 889.99794922 -132.97396484 889.99794922 -134.22265625 889.61328125 C-138.33934877 888.16810791 -142.22765763 886.38504829 -146.1875 884.5625 C-154.24188399 880.92400461 -162.3008296 877.9904305 -170.75 875.375 C-172.1059091 874.94017284 -173.46136826 874.50394046 -174.81640625 874.06640625 C-182.72779897 871.52767575 -190.66735093 869.30476742 -198.75 867.375 C-208.78071712 864.94074009 -218.74523497 862.46991545 -228.58203125 859.328125 C-232.092076 858.27208194 -235.62223723 857.41326038 -239.1875 856.5625 C-248.5799861 854.29262053 -257.73010756 851.30989014 -266.90673828 848.29833984 C-269.73201315 847.38084117 -272.5654842 846.4942293 -275.40234375 845.61328125 C-288.33405094 841.54292848 -299.86178387 837.03848395 -309.75 827.375 C-309.75 826.715 -309.75 826.055 -309.75 825.375 C-310.41 825.375 -311.07 825.375 -311.75 825.375 C-319.75345676 816.97254393 -323.37063968 806.474097 -325.75 795.375 C-326.00487183 794.43998657 -326.00487183 794.43998657 -326.26489258 793.48608398 C-328.06137658 786.53482022 -328.09482182 779.7121804 -328.0625 772.5625 C-328.05512817 770.63579468 -328.05512817 770.63579468 -328.04760742 768.67016602 C-327.66376616 737.18927769 -318.31889855 704.11381568 -304.42578125 675.9296875 C-303.12283762 673.16586768 -301.97926346 670.44554553 -300.87890625 667.6015625 C-298.73269061 662.16023532 -296.11913032 657.03548953 -293.375 651.875 C-292.91867187 651.00230469 -292.46234375 650.12960937 -291.9921875 649.23046875 C-289.18354047 643.90508463 -286.20897161 638.71554633 -283.06005859 633.58398438 C-281.85506347 631.55215511 -280.7763222 629.50160265 -279.75 627.375 C-279.09 627.375 -278.43 627.375 -277.75 627.375 C-277.564375 626.4778125 -277.564375 626.4778125 -277.375 625.5625 C-276.75 623.375 -276.75 623.375 -274.75 620.375 C-276.2659375 621.179375 -276.2659375 621.179375 -277.8125 622 C-302.97311206 634.42925604 -333.88968971 645.47874271 -362.0625 645.625 C-363.04412109 645.645625 -364.02574219 645.66625 -365.03710938 645.6875 C-371.76667748 645.72312975 -377.42840216 644.67881716 -383.75 642.375 C-383.75 641.715 -383.75 641.055 -383.75 640.375 C-384.45125 640.189375 -385.1525 640.00375 -385.875 639.8125 C-390.76294909 637.36852546 -393.74802798 633.42448822 -396.125 628.5625 C-398.06672468 618.65970413 -396.4760902 610.32340654 -391 601.875 C-382.02962515 589.12409311 -382.02962515 589.12409311 -377.75 585.375 C-377.09 585.375 -376.43 585.375 -375.75 585.375 C-375.75 584.715 -375.75 584.055 -375.75 583.375 C-370.27380952 578.375 -370.27380952 578.375 -367.75 578.375 C-367.75 577.715 -367.75 577.055 -367.75 576.375 C-366.08520508 574.89453125 -366.08520508 574.89453125 -363.76953125 573.1875 C-362.93486328 572.57132813 -362.10019531 571.95515625 -361.24023438 571.3203125 C-359.91475586 570.35738281 -359.91475586 570.35738281 -358.5625 569.375 C-357.26602539 568.41207031 -357.26602539 568.41207031 -355.94335938 567.4296875 C-351.96027177 564.51180876 -348.42044442 562.06752654 -343.75 560.375 C-343.75 559.715 -343.75 559.055 -343.75 558.375 C-342.76 558.375 -341.77 558.375 -340.75 558.375 C-340.75 557.715 -340.75 557.055 -340.75 556.375 C-339.80125 555.859375 -338.8525 555.34375 -337.875 554.8125 C-332.9382273 552.00452046 -328.36272822 548.67908702 -323.75 545.375 C-324.85730469 545.21644531 -325.96460938 545.05789063 -327.10546875 544.89453125 C-342.36964312 542.67381268 -357.56175694 540.06216836 -372.75 537.375 C-374.06798584 537.14248535 -374.06798584 537.14248535 -375.41259766 536.90527344 C-382.85101112 535.58406878 -390.20272911 534.09087606 -397.515625 532.18359375 C-400.69333907 531.38916523 -403.87924244 530.6834386 -407.08105469 529.99487305 C-430.96664307 524.84203273 -454.6089448 517.79432009 -476.75 507.375 C-476.75 506.715 -476.75 506.055 -476.75 505.375 C-477.45511719 505.30152344 -478.16023438 505.22804688 -478.88671875 505.15234375 C-482.56480428 504.1537912 -484.64900782 502.37516079 -487.5625 499.9375 C-488.53832031 499.13441406 -489.51414062 498.33132813 -490.51953125 497.50390625 C-491.25558594 496.80136719 -491.99164063 496.09882813 -492.75 495.375 C-492.75 494.715 -492.75 494.055 -492.75 493.375 C-493.41 493.375 -494.07 493.375 -494.75 493.375 C-499.30288961 489.05665319 -500.19916211 484.0120605 -500.4375 477.9375 C-500.1826371 470.81549779 -498.63606366 466.52107591 -493.75 461.375 C-492.95529297 460.53388672 -492.95529297 460.53388672 -492.14453125 459.67578125 C-475.5154664 443.99469159 -446.44698843 439.98528325 -424.83447266 435.95263672 C-422.05705416 435.43250278 -419.28442339 434.89220928 -416.51171875 434.34765625 C-386.15500308 428.55414739 -355.2050872 426.10165766 -324.4375 423.625 C-323.44113085 423.54438765 -323.44113085 423.54438765 -322.42463303 423.46214676 C-308.28242022 422.31898047 -294.14991574 421.20934567 -279.96818542 420.70367432 C-276.67688785 420.57706236 -273.89323805 420.42274602 -270.75 419.375 C-271.306875 418.34503906 -271.86375 417.31507813 -272.4375 416.25390625 C-277.88588898 406.10970807 -282.95822825 395.84427858 -287.75 385.375 C-288.21148437 384.36695313 -288.67296875 383.35890625 -289.1484375 382.3203125 C-289.94784592 380.56365069 -290.74484139 378.80588819 -291.5390625 377.046875 C-292.9278376 373.98260995 -294.33789722 370.92858267 -295.75 367.875 C-296.25402344 366.781875 -296.75804687 365.68875 -297.27734375 364.5625 C-298.20236289 362.56033656 -299.13144625 360.56004065 -300.06640625 358.5625 C-302.79634643 352.67472932 -305.19942611 346.71378147 -307.49609375 340.64453125 C-310.05116794 333.98223501 -312.7970384 327.40425164 -315.8125 320.9375 C-317.86741821 316.38201867 -319.25208321 311.67798592 -320.625 306.87890625 C-321.507964 304.12884129 -322.4835717 301.56380802 -323.59375 298.90625 C-326.31726853 292.19895518 -328.26507153 285.26429575 -330.25 278.3125 C-330.4473172 277.62624542 -330.6446344 276.93999084 -330.84793091 276.23294067 C-336.69062065 255.89364575 -341.19696728 236.29009047 -341.1875 215 C-341.18860275 213.91415115 -341.18860275 213.91415115 -341.18972778 212.80636597 C-341.14989114 197.86597345 -339.66836586 183.75745747 -328.75 172.375 C-326.53515625 171.1171875 -326.53515625 171.1171875 -324.75 170.375 C-324.75 169.715 -324.75 169.055 -324.75 168.375 C-317.14073614 161.93475713 -307.62123426 159.77862791 -297.87109375 160.1015625 C-283.25763779 161.38184024 -269.64663318 167.94821817 -257.75 176.375 C-257.75 177.035 -257.75 177.695 -257.75 178.375 C-257.09 178.58125 -256.43 178.7875 -255.75 179 C-251.67819814 180.86624252 -248.06203002 183.35061527 -244.75 186.375 C-244.75 187.035 -244.75 187.695 -244.75 188.375 C-243.88375 188.7771875 -243.88375 188.7771875 -243 189.1875 C-240.69449957 190.40429189 -238.72943808 191.67833879 -236.75 193.375 C-236.75 194.035 -236.75 194.695 -236.75 195.375 C-236.16734375 195.643125 -235.5846875 195.91125 -234.984375 196.1875 C-232.72213399 197.38980991 -230.94423682 198.71325913 -229 200.375 C-228.38640625 200.890625 -227.7728125 201.40625 -227.140625 201.9375 C-225.75 203.375 -225.75 203.375 -225.75 205.375 C-225.09 205.375 -224.43 205.375 -223.75 205.375 C-222.125 206.75 -222.125 206.75 -220.75 208.375 C-220.75 209.035 -220.75 209.695 -220.75 210.375 C-219.76 210.705 -218.77 211.035 -217.75 211.375 C-217.75 212.035 -217.75 212.695 -217.75 213.375 C-217.09 213.375 -216.43 213.375 -215.75 213.375 C-214.09375 214.984375 -214.09375 214.984375 -212.25 217.125 C-211.6415625 217.82109375 -211.033125 218.5171875 -210.40625 219.234375 C-208.75 221.375 -208.75 221.375 -207.71875 223.578125 C-206.8226576 225.73132919 -206.8226576 225.73132919 -203.75 226.375 C-201.92578125 228.15234375 -201.92578125 228.15234375 -200.0625 230.3125 C-199.12857422 231.37791016 -199.12857422 231.37791016 -198.17578125 232.46484375 C-196.75 234.375 -196.75 234.375 -196.75 236.375 C-195.76 236.705 -194.77 237.035 -193.75 237.375 C-191.92578125 239.37109375 -191.92578125 239.37109375 -190.0625 241.8125 C-189.43988281 242.61558594 -188.81726563 243.41867188 -188.17578125 244.24609375 C-186.75 246.375 -186.75 246.375 -186.75 248.375 C-185.76 248.705 -184.77 249.035 -183.75 249.375 C-180.75 252.81944444 -180.75 252.81944444 -180.75 255.375 C-180.09 255.375 -179.43 255.375 -178.75 255.375 C-177.39721885 257.36189731 -176.06431695 259.36245218 -174.75 261.375 C-174.09 261.705 -173.43 262.035 -172.75 262.375 C-172.75 263.365 -172.75 264.355 -172.75 265.375 C-171.76 265.705 -170.77 266.035 -169.75 266.375 C-168.48242187 267.73510742 -168.48242187 267.73510742 -167.21875 269.48046875 C-166.74381104 270.12677246 -166.26887207 270.77307617 -165.77954102 271.43896484 C-165.27479248 272.13973145 -164.77004395 272.84049805 -164.25 273.5625 C-163.16682116 275.03883021 -162.0821578 276.51407226 -160.99609375 277.98828125 C-160.45065918 278.73029785 -159.90522461 279.47231445 -159.34326172 280.23681641 C-157.06501147 283.29426594 -154.69271732 286.27177115 -152.3125 289.25 C-141.53129947 302.83731992 -131.71721102 317.18743837 -121.75 331.375 C-120.58143978 325.3954525 -119.59329598 319.41796717 -118.8125 313.375 C-115.82210417 290.39495823 -111.95938807 267.42565018 -107.55859375 244.67578125 C-106.86575154 241.05480228 -106.22973878 237.42502398 -105.59765625 233.79296875 C-101.74001455 211.67066558 -101.74001455 211.67066558 -99.20166016 201.41137695 C-97.87006899 196.0116334 -96.75701083 190.58235185 -95.6875 185.125 C-93.60937807 174.54984672 -91.20393053 164.08347607 -88.5546875 153.63671875 C-87.80918569 150.61490316 -87.1105142 147.58488256 -86.42138672 144.54980469 C-82.60402149 127.88590763 -77.59490689 111.64449367 -72.1875 95.4375 C-71.95602264 94.74366211 -71.72454529 94.04982422 -71.48605347 93.33496094 C-62.26788322 65.77062838 -62.26788322 65.77062838 -56.75 54.375 C-56.46253906 53.77429687 -56.17507813 53.17359375 -55.87890625 52.5546875 C-50.15932427 40.64086942 -43.97751332 28.78038449 -35.75 18.375 C-35.09 18.375 -34.43 18.375 -33.75 18.375 C-33.42 17.385 -33.09 16.395 -32.75 15.375 C-32.09 15.375 -31.43 15.375 -30.75 15.375 C-30.3478125 14.4159375 -30.3478125 14.4159375 -29.9375 13.4375 C-28.75 11.375 -28.75 11.375 -25.75 10.375 C-25.75 9.715 -25.75 9.055 -25.75 8.375 C-24.04521409 7.41037025 -22.33598588 6.45358946 -20.625 5.5 C-19.67367188 4.96632813 -18.72234375 4.43265625 -17.7421875 3.8828125 C-11.72241718 0.84935122 -6.64330396 -0.01392726 0 0 Z M-24.234375 45.2734375 C-24.73453125 46.29695313 -25.2346875 47.32046875 -25.75 48.375 C-26.68258925 50.07513605 -27.61536867 51.7751746 -28.55322266 53.47241211 C-32.64566629 60.93364764 -36.0348365 68.48432535 -39.02783203 76.45263672 C-39.76752691 78.42165548 -40.52144325 80.38480745 -41.27734375 82.34765625 C-45.67380588 93.83505145 -49.9071532 105.39443136 -52.75 117.375 C-53.17811525 118.83611591 -53.61664559 120.29419912 -54.0625 121.75 C-58.36818561 135.91286435 -62.40703525 150.23278829 -65.2265625 164.76953125 C-66.78629462 172.53327249 -68.7052374 180.21025127 -70.6875 187.875 C-72.97132365 196.81422533 -74.61925335 205.86228033 -76.29296875 214.93164062 C-76.93372238 218.35720811 -77.6207237 221.77185454 -78.3125 225.1875 C-82.24189271 244.74996046 -85.96881958 264.42375327 -88.2578125 284.25390625 C-88.75 287.375 -88.75 287.375 -89.74609375 290.828125 C-90.76805134 294.43877673 -91.27514937 297.83563578 -91.6875 301.5625 C-92.40260913 307.7291365 -93.2458578 313.86392361 -94.1875 320 C-96.88490816 337.70610752 -99.16794849 355.4626729 -101.36181641 373.23730469 C-102.04802147 378.78391317 -102.74336774 384.32937903 -103.4375 389.875 C-103.69144455 391.90624521 -103.9453545 393.93749475 -104.19921875 395.96875 C-104.3828125 397.4375 -104.56640625 398.90625 -104.75 400.375 C-114.32631999 386.09722714 -114.32631999 386.09722714 -118.0625 380.125 C-121.85350267 374.11509292 -125.89010502 368.27704238 -129.91674805 362.42382812 C-132.94688011 358.01794895 -135.9410834 353.595442 -138.875 349.125 C-142.65609706 343.42572635 -146.69086553 337.93382546 -150.7578125 332.4375 C-153.4197681 328.83634279 -156.03761264 325.20487779 -158.64892578 321.56689453 C-166.38387218 310.79427326 -174.37672418 300.27786202 -182.703125 289.953125 C-184.58736102 287.57985062 -186.42723697 285.17710223 -188.25732422 282.76196289 C-193.64809629 275.66075921 -199.35551836 268.88503068 -205.20458984 262.15869141 C-207.28512547 259.75736545 -209.34497729 257.33868426 -211.40576172 254.92041016 C-216.75662359 248.64845635 -222.1640325 242.43976472 -227.75 236.375 C-228.32766113 235.7469043 -228.90532227 235.11880859 -229.50048828 234.47167969 C-237.9039804 225.35996873 -246.36105014 216.4840163 -255.75 208.375 C-256.69480225 207.54572998 -256.69480225 207.54572998 -257.65869141 206.69970703 C-269.75433637 196.13223652 -283.91411483 184.40171871 -300.3125 181.8125 C-305.10528264 182.59677352 -307.58050405 184.7938812 -310.75 188.375 C-315.89901289 196.36484759 -316.07238797 205.71406612 -316 214.9375 C-316.00773438 215.92685547 -316.01546875 216.91621094 -316.0234375 217.93554688 C-316.00787831 223.79747349 -315.35247004 228.7453487 -313.75 234.375 C-313.40682244 236.39085039 -313.09271613 238.41193772 -312.8125 240.4375 C-310.34446299 256.98674039 -305.91668163 272.33353785 -300.29980469 288.0456543 C-298.53098593 293.01759046 -296.92861951 298.00559348 -295.48071289 303.08081055 C-294.47046541 306.25264335 -293.11038274 309.22075732 -291.71484375 312.23828125 C-290.82834707 314.20149455 -290.05070048 316.16474727 -289.3125 318.1875 C-287.68304862 322.64192416 -285.83835916 326.99951944 -284 331.37109375 C-282.90330985 334.00657727 -281.85018583 336.65343005 -280.8125 339.3125 C-278.80407911 344.37827415 -276.49248529 349.28819228 -274.18359375 354.22265625 C-272.96738855 356.89698212 -271.86175272 359.5700326 -270.8125 362.3125 C-268.4987122 368.22551328 -265.59392749 373.83756869 -262.71191406 379.48779297 C-261.0881056 382.67358978 -259.47904821 385.86671491 -257.875 389.0625 C-257.54765869 389.71404053 -257.22031738 390.36558105 -256.88305664 391.03686523 C-253.75147882 397.30530943 -250.76205359 403.63951276 -247.80712891 409.99291992 C-245.9663928 413.92524983 -244.06370902 417.69296845 -241.75 421.375 C-240.59974741 423.30987965 -239.45411753 425.24751297 -238.3125 427.1875 C-237.73628906 428.16332031 -237.16007813 429.13914062 -236.56640625 430.14453125 C-234.49543238 433.82774714 -232.60650865 437.58037129 -230.75 441.375 C-232.69712891 441.35759766 -232.69712891 441.35759766 -234.68359375 441.33984375 C-281.32164866 441.05249203 -328.24716562 445.23228254 -374.5625 450.5 C-375.27634857 450.580224 -375.99019714 450.660448 -376.72567749 450.74310303 C-383.77550419 451.54230785 -390.73211699 452.46104632 -397.67260742 453.94189453 C-400.43296995 454.51738908 -403.20396181 454.89134589 -406 455.25 C-441.70749836 459.64061993 -441.70749836 459.64061993 -473.60546875 474.796875 C-474.97063683 476.32304284 -474.97063683 476.32304284 -474.60546875 478.38671875 C-471.18467942 486.33732042 -460.18672097 490.07786623 -452.75 493.375 C-447.90845057 495.26407666 -443.00924054 496.90940198 -438.0625 498.5 C-436.73774271 498.93230043 -435.41303633 499.36475692 -434.08837891 499.79736328 C-419.22069569 504.61818804 -404.32642743 508.41235179 -388.98046875 511.3515625 C-385.47095453 512.0267475 -381.97787663 512.75196543 -378.48828125 513.5234375 C-360.43924155 517.48974994 -342.22727269 520.26624655 -323.96508789 523.03717041 C-320.65776875 523.54157941 -317.35247215 524.05864687 -314.046875 524.57421875 C-302.78328139 526.3108134 -291.551643 527.83647639 -280.19116211 528.78027344 C-279.39718018 528.84633789 -278.60319824 528.91240234 -277.78515625 528.98046875 C-277.0981665 529.03356201 -276.41117676 529.08665527 -275.70336914 529.14135742 C-273.6537845 529.38650834 -271.75009977 529.87080163 -269.75 530.375 C-268.31055408 530.57803728 -266.86729709 530.7552896 -265.421875 530.91015625 C-264.62265625 530.99716797 -263.8234375 531.08417969 -263 531.17382812 C-262.175 531.26083984 -261.35 531.34785156 -260.5 531.4375 C-259.65953125 531.52837891 -258.8190625 531.61925781 -257.953125 531.71289062 C-255.88568359 531.93608032 -253.81787598 532.15587322 -251.75 532.375 C-252.70531616 532.86359497 -252.70531616 532.86359497 -253.67993164 533.36206055 C-289.76061252 551.85893468 -327.06091519 571.26869354 -356.75 599.375 C-357.64074219 600.21289062 -358.53148437 601.05078125 -359.44921875 601.9140625 C-367.61671551 609.5118561 -367.61671551 609.5118561 -371.0625 619.75 C-371.03368063 622.29750591 -371.03368063 622.29750591 -369.75 623.375 C-357.91320732 624.1790583 -348.08197388 622.89808162 -336.75 619.375 C-334.18936057 618.72182876 -331.62684219 618.07597951 -329.0625 617.4375 C-323.39214588 615.92854922 -318.13088953 614.01219941 -312.765625 611.65234375 C-309.53072848 610.28212204 -306.26134052 609.13651498 -302.9375 608 C-296.6068721 605.77628877 -290.63827483 603.08421728 -284.59765625 600.19140625 C-280.71231754 598.33647675 -276.76885988 596.63418549 -272.8125 594.9375 C-261.53260607 590.06234995 -250.53571659 584.61646101 -239.984375 578.30859375 C-237.28677494 577.18144967 -236.45651196 577.40106577 -233.75 578.375 C-232.10253906 579.68188477 -232.10253906 579.68188477 -230.515625 581.31640625 C-229.94199219 581.89970703 -229.36835938 582.48300781 -228.77734375 583.08398438 C-228.19082031 583.69564453 -227.60429687 584.30730469 -227 584.9375 C-226.39800781 585.55302734 -225.79601562 586.16855469 -225.17578125 586.80273438 C-223.69365619 588.32014813 -222.2209033 589.84670596 -220.75 591.375 C-223.9880972 595.24272721 -227.3098547 598.96325774 -230.80444336 602.60229492 C-242.19495584 614.57551778 -251.51068159 628.17890627 -259.68505859 642.50976562 C-260.78456909 644.43554742 -261.90146198 646.35056814 -263.01953125 648.265625 C-268.12164872 657.08616135 -272.62342673 666.10462637 -276.80712891 675.39453125 C-277.47145291 676.78992128 -278.18750729 678.1612554 -278.93896484 679.51171875 C-279.51638428 680.55779297 -279.51638428 680.55779297 -280.10546875 681.625 C-280.64723755 682.56085938 -280.64723755 682.56085938 -281.19995117 683.515625 C-281.96537515 685.42910903 -281.96537515 685.42910903 -280.99121094 687.48388672 C-279.3016911 690.058045 -277.24098114 691.61156847 -274.8125 693.5 C-270.82609331 696.67041471 -266.9915477 699.91877896 -263.25 703.375 C-258.6650874 707.5975991 -253.92699561 711.56900497 -249.0625 715.46484375 C-246.75 717.375 -246.75 717.375 -245.0625 719.12890625 C-243.80989639 720.60450751 -243.80989639 720.60450751 -241.75 720.375 C-243.89132972 724.32176458 -246.30155188 727.11470352 -249.625 730.125 C-250.46804687 730.90359375 -251.31109375 731.6821875 -252.1796875 732.484375 C-254.93545274 734.51141204 -256.32484261 735.43892207 -259.75 735.375 C-262.36328125 733.53125 -262.36328125 733.53125 -265.0625 730.875 C-266.03456092 729.93948518 -267.00722041 729.00459194 -267.98046875 728.0703125 C-268.89441406 727.18085937 -269.80835938 726.29140625 -270.75 725.375 C-272.11460537 724.1549399 -273.48833155 722.94492471 -274.875 721.75 C-276.99427822 719.9191184 -279.08018095 718.06967719 -281.13671875 716.16796875 C-281.93722656 715.43191406 -282.73773438 714.69585938 -283.5625 713.9375 C-284.29082031 713.25816406 -285.01914062 712.57882812 -285.76953125 711.87890625 C-287.73374163 710.0726177 -287.73374163 710.0726177 -290.75 710.375 C-294.53512471 720.30855062 -297.40897804 730.19654757 -299.4375 740.625 C-299.63484741 741.61729614 -299.63484741 741.61729614 -299.83618164 742.62963867 C-300.66244341 747.06433617 -300.75 750.75138519 -300.75 755.375 C-291.51 755.375 -282.27 755.375 -272.75 755.375 C-272.75 762.305 -272.75 769.235 -272.75 776.375 C-282.32 776.375 -291.89 776.375 -301.75 776.375 C-301.75 791.42354364 -298.40680864 803.37633515 -288.59375 814.87890625 C-286.15935544 816.85427302 -284.91160658 817.43526523 -281.75 817.375 C-279.45389738 815.65140042 -277.61535986 814.02871669 -275.625 812 C-274.47642056 810.88287951 -273.32534089 809.76832435 -272.171875 808.65625 C-271.59888672 808.099375 -271.02589844 807.5425 -270.43554688 806.96875 C-267.18833132 803.89838165 -263.68890984 801.15422621 -260.20703125 798.35546875 C-256.99246053 795.76439188 -253.86987892 793.07889506 -250.75 790.375 C-246.46239355 791.78367501 -243.83082102 793.85707035 -240.5625 796.9375 C-237.40811063 800.01685798 -237.40811063 800.01685798 -233.75 802.375 C-235.2454708 805.97221356 -237.27706308 808.00597221 -240.1875 810.5625 C-241.07050781 811.34367188 -241.95351563 812.12484375 -242.86328125 812.9296875 C-246.71063257 816.18874288 -250.68194585 819.28031616 -254.6953125 822.33203125 C-255.71238281 823.34330078 -255.71238281 823.34330078 -256.75 824.375 C-256.75 825.695 -256.75 827.015 -256.75 828.375 C-242.0819746 832.88694942 -227.37706552 837.05779538 -212.5 840.8125 C-196.13012053 844.94781618 -179.92282871 849.52444081 -163.75 854.375 C-162.09327271 854.86154053 -162.09327271 854.86154053 -160.40307617 855.35791016 C-139.05878334 861.72872617 -119.98312679 871.09998392 -101.91967773 884.01416016 C-90.21435837 892.36429957 -78.0595705 898.08819997 -64.75 903.375 C-63.64527344 903.82746094 -62.54054688 904.27992188 -61.40234375 904.74609375 C-30.40409072 916.69864391 2.13759055 922.76320578 34.125 912.3359375 C37.2129381 911.38639653 40.27848447 910.6712908 43.4375 910 C54.45890561 907.53890943 65.71496676 904.15569831 75.671875 898.75390625 C77.64879576 897.69655318 79.66842815 896.7187363 81.703125 895.77734375 C89.7746705 892.0267937 96.96517655 887.64583965 104.1875 882.4375 C116.42839461 873.61833737 129.16941775 866.80961069 143.25 861.375 C144.85294922 860.72917969 144.85294922 860.72917969 146.48828125 860.0703125 C152.5248271 857.6727185 158.5070664 855.61752771 164.8125 854.05078125 C167.23528945 853.43521859 167.23528945 853.43521859 169.39404297 852.47070312 C172.98914119 851.09142455 176.66036653 850.12993364 180.3828125 849.16796875 C181.56978226 848.85706047 181.56978226 848.85706047 182.7807312 848.53987122 C185.31137545 847.87772326 187.84314671 847.22000803 190.375 846.5625 C192.02221361 846.13246086 193.66934973 845.70212477 195.31640625 845.27148438 C198.62595041 844.40659382 201.93576995 843.54277046 205.24584961 842.67993164 C206.91390956 842.24499209 208.58195965 841.81001472 210.25 841.375 C211.08757843 841.1565744 211.92515686 840.9381488 212.78811646 840.71310425 C222.19904658 838.256268 231.59528287 835.77152853 240.9375 833.0625 C241.85337891 832.79888672 242.76925781 832.53527344 243.71289062 832.26367188 C245.89249072 831.63603834 248.07152687 831.00653154 250.25 830.375 C248.37723695 826.20407254 245.55418775 823.83531502 242.0625 821 C240.88791247 820.02747461 239.7134325 819.05481931 238.5390625 818.08203125 C237.97348633 817.61748535 237.40791016 817.15293945 236.82519531 816.67431641 C234.84062178 815.03732008 232.88590877 813.36730098 230.9375 811.6875 C230.050625 810.924375 229.16375 810.16125 228.25 809.375 C233.0152031 804.4509568 238.13657333 799.93240358 243.25 795.375 C247.77190261 796.8051447 250.71019603 799.3357586 254.0625 802.5625 C255.12307766 803.55925413 256.1842764 804.55534783 257.24609375 805.55078125 C258.01542236 806.2770874 258.01542236 806.2770874 258.80029297 807.01806641 C261.3136493 809.37058147 263.90150116 811.63241542 266.51953125 813.8671875 C267.65451406 814.85613415 268.75842521 815.88216361 269.82421875 816.9453125 C272.49438724 819.51035624 273.87812736 820.36122694 277.625 820.5 C287.73940317 817.36104729 292.30668685 811.15602448 297.50390625 802.21875 C301.03679395 795.23119351 301.05914974 789.71095183 302.25 781.375 C290.7 781.375 279.15 781.375 267.25 781.375 C267.25 774.445 267.25 767.515 267.25 760.375 C278.8 760.375 290.35 760.375 302.25 760.375 C300.8091421 744.1326019 298.65307391 725.18114781 291.25 710.375 C287.57043709 711.93732021 285.08484207 714.21084082 282.1875 716.9375 C278.47521409 720.38962571 274.70183862 723.69425184 270.75 726.875 C265.03416904 731.48560535 259.63521588 736.3856027 254.25 741.375 C250.59341967 739.76333189 247.71966904 737.51076922 244.625 735 C243.18253906 733.84371094 243.18253906 733.84371094 241.7109375 732.6640625 C239.47767657 730.58677535 238.33780403 729.17769508 237.25 726.375 C238.08660156 725.65957031 238.92320312 724.94414063 239.78515625 724.20703125 C246.74897138 718.24730109 253.70501938 712.27901182 260.61010742 706.2512207 C263.7956464 703.47569747 267.00520815 700.74039059 270.2734375 698.0625 C270.91990234 697.52689453 271.56636719 696.99128906 272.23242188 696.43945312 C273.46235539 695.42275886 274.70028551 694.41563482 275.94726562 693.41992188 C278.37997036 691.39693583 280.07304124 689.82329554 281.24609375 686.8515625 C281.26329722 675.94456098 271.32985102 662.72436908 266.25 653.375 C265.91629395 652.75367188 265.58258789 652.13234375 265.23876953 651.4921875 C255.02682304 632.54954033 242.65281046 615.13102152 227.96606445 599.43139648 C225.53427047 596.82771595 223.39765622 594.23854163 221.25 591.375 C225.87 586.755 230.49 582.135 235.25 577.375 C245.36302497 580.74600832 245.36302497 580.74600832 248.6875 582.57421875 C249.42750244 582.97439209 250.16750488 583.37456543 250.92993164 583.78686523 C251.6955542 584.20782471 252.46117676 584.62878418 253.25 585.0625 C276.6034016 597.58909805 301.05650115 608.14243582 326.25 616.375 C326.98992188 616.61976074 327.72984375 616.86452148 328.4921875 617.11669922 C333.0559902 618.62003369 337.63450956 620.03838738 342.25 621.375 C343.10078125 621.6225 343.9515625 621.87 344.828125 622.125 C353.05097445 624.13875905 361.84259898 623.75837035 370.25 623.375 C371.50847486 622.30806862 371.50847486 622.30806862 371.6875 619.875 C370.14001455 607.49511637 355.49328831 596.91776181 346.1875 589.625 C343.88921401 587.8556449 341.57341699 586.11116453 339.25 584.375 C338.31285156 583.66601562 337.37570312 582.95703125 336.41015625 582.2265625 C329.25765223 576.91207346 321.79497051 572.10586326 314.25 567.375 C313.4254834 566.85679687 312.6009668 566.33859375 311.75146484 565.8046875 C297.23230897 556.69160541 297.23230897 556.69160541 282.25 548.375 C280.93554873 547.6743937 279.62180841 546.97245271 278.30859375 546.26953125 C269.36049722 541.48945707 260.34970655 536.85995838 251.25 532.375 C254.42075361 531.31808213 256.97945104 531.12851684 260.3125 530.9375 C276.09286241 529.90076506 291.7424997 527.69339769 307.3894043 525.453125 C310.54724509 525.00217843 313.70617147 524.55948082 316.86523438 524.1171875 C328.51150118 522.46738666 340.05777523 520.53863779 351.59936523 518.27197266 C358.62460766 516.89789311 365.69571347 515.83988048 372.7734375 514.77734375 C378.07560414 513.95902466 383.10823595 512.94680163 388.25 511.375 C390.28722992 510.91728471 392.32922565 510.4803712 394.375 510.0625 C400.68795 508.73202882 406.9715879 507.29737007 413.25 505.8125 C414.14605957 505.60262451 415.04211914 505.39274902 415.96533203 505.17651367 C420.48193774 504.10191985 424.8580441 502.89168877 429.25 501.375 C430.64165881 500.96083218 432.03505988 500.55249572 433.4296875 500.1484375 C444.33928194 496.92947962 454.30007068 492.88496641 464.25 487.375 C464.88292969 487.02469727 465.51585937 486.67439453 466.16796875 486.31347656 C471.24249481 483.48983767 471.24249481 483.48983767 475.25 479.375 C475.1159397 477.34774265 475.1159397 477.34774265 474.25 475.375 C461.15808481 465.22208618 443.16116928 462.41530916 427.37255859 459.04345703 C424.60485918 458.45096594 421.84328432 457.83649281 419.08203125 457.21484375 C408.62223782 454.92474193 398.15796834 453.54254117 387.50219727 452.5012207 C381.87527725 451.94158284 376.30943147 451.24457781 370.73426819 450.30883789 C358.78371867 448.30584091 346.82596257 447.24243627 334.75 446.3125 C332.58389378 446.14098544 330.4177969 445.96935301 328.25170898 445.79760742 C296.02030256 443.2721551 263.59422614 440.96957098 231.25 441.375 C234.35452771 434.95427224 237.607131 428.66968069 241.1875 422.5 C244.84439047 416.1958539 248.14477445 409.75442437 251.34814453 403.20654297 C252.28192017 401.31017457 253.23050333 399.42188626 254.18359375 397.53515625 C258.06069013 389.85502999 261.81104145 382.12731097 265.44970703 374.33129883 C267.60111901 369.72779172 269.81817816 365.16676949 272.14453125 360.6484375 C273.32790535 358.21478475 274.39356466 355.74041744 275.44897461 353.24902344 C276.24591542 351.384556 277.06774786 349.53324646 277.8984375 347.68359375 C281.31893837 340.03239585 284.39592021 332.38705986 287.140625 324.46484375 C288.05911329 321.90665981 289.05036939 319.46533643 290.1875 317 C299.53664723 296.54406587 306.00292499 274.19806197 311.25 252.375 C311.435625 251.63765625 311.62125 250.9003125 311.8125 250.140625 C313.27319379 244.06961644 314.02173074 237.91989377 314.78515625 231.73046875 C315.25 228.375 315.25 228.375 315.76635742 226.43676758 C318.33256619 215.49702348 317.52879638 199.6466157 311.8203125 189.9453125 C309.51037414 186.71599569 307.57792879 184.59361919 304.25 182.375 C291.12657921 180.70474645 279.55774164 189.87244454 269.625 197.3515625 C264.47645618 201.38995156 259.58236354 205.68421827 254.75 210.09375 C252.27002895 212.35672358 249.76095783 214.58402492 247.25 216.8125 C239.97824183 223.3650733 233.06309431 230.22150571 226.72265625 237.68359375 C225.25 239.375 225.25 239.375 223.55859375 240.97265625 C222.02258477 242.29902963 222.02258477 242.29902963 222.25 244.375 C221.26 244.705 220.27 245.035 219.25 245.375 C217.81197818 246.9660643 216.44674665 248.6236015 215.125 250.3125 C212.06306124 254.15483549 208.94523513 257.87844216 205.625 261.5 C202.31173303 265.1440234 199.22465548 268.87199626 196.2421875 272.7890625 C194.22890796 275.4023783 192.16786496 277.97094579 190.09545898 280.53735352 C183.27005552 288.99763623 176.71493676 297.63731145 170.25 306.375 C169.41831299 307.49696777 169.41831299 307.49696777 168.56982422 308.64160156 C154.43076694 327.72513865 140.4854308 346.91359572 127.3515625 366.70703125 C124.79198556 370.56403674 122.22099483 374.41336528 119.6484375 378.26171875 C118.40939968 380.11628968 117.17048212 381.97094087 115.93161011 383.82562256 C115.10378312 385.06451001 114.27559838 386.30315849 113.447052 387.54156494 C112.27482419 389.29392155 111.10405706 391.04724575 109.93359375 392.80078125 C109.24837646 393.82598877 108.56315918 394.85119629 107.85717773 395.9074707 C106.26609362 398.24829778 106.26609362 398.24829778 105.25 400.375 C103.71918695 389.74642807 102.31890729 379.10753226 101.078125 368.44140625 C100.9758107 367.56209442 100.8734964 366.68278259 100.76808167 365.77682495 C100.55689075 363.9605933 100.34571438 362.14435997 100.134552 360.328125 C98.33133157 344.84295029 96.32547329 329.45627659 93.69970703 314.0859375 C92.78325649 308.5613627 91.994428 303.01650119 91.20068359 297.47314453 C90.74100733 294.32725586 90.25774648 291.39823944 89.25 288.375 C88.95251599 286.31617504 88.68718682 284.25266668 88.4375 282.1875 C87.53175446 275.05747108 86.41779683 267.9664665 85.25 260.875 C85.00092896 259.33549683 85.00092896 259.33549683 84.74682617 257.76489258 C84.07022346 253.70161898 83.36636868 249.7765601 82.21875 245.81640625 C80.67043264 240.31613368 80.11622908 234.68397744 79.39453125 229.02539062 C79.27464844 228.12884766 79.15476562 227.23230469 79.03125 226.30859375 C78.92876953 225.50478271 78.82628906 224.70097168 78.72070312 223.87280273 C78.28881182 221.27072032 78.28881182 221.27072032 77.27124023 218.4440918 C76.25677509 215.39536089 75.65473573 212.50281437 75.12890625 209.3359375 C74.92128662 208.13735107 74.71366699 206.93876465 74.49975586 205.70385742 C74.38888641 205.06257904 74.27801697 204.42130066 74.16378784 203.7605896 C71.62040236 189.20356885 68.31037271 174.88633735 64.6875 160.5625 C64.45620392 159.64740662 64.22490784 158.73231323 63.98660278 157.78948975 C62.64236681 152.4871562 61.27822943 147.19023272 59.90200806 141.89611816 C59.26938484 139.44995533 58.64759234 137.00126844 58.02807617 134.55175781 C55.25671401 123.68255002 52.03522737 113.00330616 48.53833008 102.34619141 C47.67731594 99.71892474 46.82746583 97.08821789 45.97851562 94.45703125 C45.42252722 92.74978746 44.86590981 91.04274835 44.30859375 89.3359375 C44.06056503 88.56704193 43.81253632 87.79814636 43.55699158 87.00595093 C42.01786191 82.34225104 40.22141617 77.87428718 38.1776886 73.40827942 C37.28380046 71.4490828 36.43815067 69.47575877 35.609375 67.48828125 C30.51976594 55.40887975 24.67323787 42.51507616 16.25 32.375 C15.59 32.375 14.93 32.375 14.25 32.375 C13.99347656 31.78203125 13.73695313 31.1890625 13.47265625 30.578125 C11.01802994 26.15509229 6.86308419 23.21475237 2.07421875 21.67578125 C-9.91302785 20.37698544 -19.47884665 35.98764268 -24.234375 45.2734375 Z " fill="#0A0A0A" transform="translate(499.75,-0.375)"/>
  <path d="M0 0 C0.84046875 0.37253906 1.6809375 0.74507812 2.546875 1.12890625 C13.32958206 6.46448716 20.87280602 14.71494192 25 26 C25.93189906 30.5081578 26.10587294 34.77746877 26.0625 39.375 C26.05347656 40.62023437 26.04445313 41.86546875 26.03515625 43.1484375 C26.02355469 44.08945312 26.01195312 45.03046875 26 46 C20.57453366 47.12373478 15.1484964 48.2446566 9.72192383 49.36303711 C7.8780163 49.74345924 6.03426384 50.1246339 4.19067383 50.5065918 C1.53247374 51.05718306 -1.12628226 51.60501733 -3.78515625 52.15234375 C-4.60210464 52.3221727 -5.41905304 52.49200165 -6.26075745 52.66697693 C-10.82853799 53.60415029 -15.37658037 54.39201086 -20 55 C-20.93406682 68.22435099 -20.93406682 68.22435099 -16.87109375 80.37109375 C-14.04715607 82.8817069 -11.16789777 84.94385503 -8 87 C-6.12942205 88.50060195 -4.2748182 90.02135435 -2.4375 91.5625 C-1.54289063 92.284375 -0.64828125 93.00625 0.2734375 93.75 C4.64428264 97.35688653 8.82526949 101.16939044 13 105 C11.38622532 109.39072461 8.09191658 111.87631184 4.625 114.8125 C3.75875 115.5849707 3.75875 115.5849707 2.875 116.37304688 C1.1640625 117.83203125 1.1640625 117.83203125 -2 120 C-6.52065579 119.51751063 -9.30757623 116.41122513 -12.5625 113.5 C-13.80507416 112.41041349 -15.04857613 111.32188422 -16.29296875 110.234375 C-16.91220215 109.69103516 -17.53143555 109.14769531 -18.16943359 108.58789062 C-22.35887799 104.95383536 -26.68698147 101.48562314 -31 98 C-35.46068548 99.41930902 -38.32771669 101.86663801 -41.625 105.0625 C-42.67633995 106.05165774 -43.72977263 107.03859532 -44.78515625 108.0234375 C-45.31641113 108.5194043 -45.84766602 109.01537109 -46.39501953 109.52636719 C-48.89363006 111.82049757 -51.46053651 114.01055844 -54.0625 116.1875 C-54.94035156 116.92355469 -55.81820313 117.65960937 -56.72265625 118.41796875 C-59 120 -59 120 -62 120 C-64.59504405 118.34297533 -66.85848131 116.25898303 -69.1875 114.25 C-69.84169922 113.71117187 -70.49589844 113.17234375 -71.16992188 112.6171875 C-71.78802734 112.08867188 -72.40613281 111.56015625 -73.04296875 111.015625 C-73.61039795 110.53383789 -74.17782715 110.05205078 -74.76245117 109.55566406 C-76 108 -76 108 -76 104 C-74.27642176 102.08992638 -72.6233873 100.47970229 -70.6875 98.8125 C-70.14714111 98.33272705 -69.60678223 97.8529541 -69.05004883 97.35864258 C-64.6855029 93.51318563 -60.20660996 89.80591837 -55.66796875 86.16796875 C-54.78753906 85.45253906 -53.90710938 84.73710938 -53 84 C-52.390354 83.61714844 -51.78070801 83.23429688 -51.15258789 82.83984375 C-47.97377864 80.6389118 -46.26588716 79.11429351 -45.34887695 75.27124023 C-45.08741108 72.03734697 -45.03002142 68.86903712 -45.0625 65.625 C-45.04638672 64.50738281 -45.03027344 63.38976562 -45.01367188 62.23828125 C-44.97844949 59.49093504 -44.97486212 56.74734721 -45 54 C-45.56847656 53.95101562 -46.13695312 53.90203125 -46.72265625 53.8515625 C-51.70183244 53.36943859 -56.19668076 52.45755894 -61 51 C-63.45305606 50.47472033 -65.91173247 49.97509562 -68.375 49.5 C-73.93718984 48.41514884 -79.47475896 47.26014269 -85 46 C-85.63028024 31.73699158 -83.98123651 20.04540138 -74.359375 9.140625 C-56.47257011 -8.43510502 -21.81461453 -10.3076909 0 0 Z " fill="#030303" transform="translate(531,719)"/>
  <path d="M0 0 C6.47731629 5.38448261 11.54231212 11.96267956 12.53515625 20.55078125 C12.78137352 31.56900406 10.52794564 39.4270555 3.22265625 47.84765625 C-6.79746442 57.57088446 -18.07276782 60.11002071 -31.67578125 59.92578125 C-42.25805944 59.65922512 -50.96014845 55.89923914 -58.71484375 48.59765625 C-65.94604144 40.65648642 -68.54140231 33.74972096 -68.36523438 23.10546875 C-67.84008374 13.10090413 -63.45688318 6.59599122 -56.23046875 -0.17578125 C-39.81687023 -13.40075076 -16.42761671 -12.26213545 0 0 Z " fill="#030303" transform="translate(657.77734375,623.15234375)"/>
  <path d="M0 0 C7.19100056 6.21892719 10.99608359 13.33590729 12.41015625 22.72265625 C12.92831792 31.9565629 9.50539681 40.33859839 3.6875 47.4375 C-5.38403044 56.90173739 -16.75673109 60.04436446 -29.5625 60.375 C-41.46622922 60.4065931 -50.26691183 56.53017551 -58.87890625 48.28125 C-67.04233216 39.50143281 -68.82056861 31.83639386 -68.41796875 20.08203125 C-67.85279154 12.27474104 -63.74211573 7.05853052 -58 2 C-57.26523437 1.26136719 -57.26523437 1.26136719 -56.515625 0.5078125 C-41.32919702 -14.02776856 -15.91667833 -11.46614706 0 0 Z " fill="#020202" transform="translate(402,623)"/>
  <path d="M0 0 C1.41015625 1.2578125 1.41015625 1.2578125 3.16015625 3.6953125 C3.16015625 5.0153125 3.16015625 6.3353125 3.16015625 7.6953125 C-0.46088982 8.54647112 -4.08717848 9.37286388 -7.71484375 10.1953125 C-8.72804688 10.43378906 -9.74125 10.67226563 -10.78515625 10.91796875 C-21.16240607 13.24619788 -29.91385449 13.01933731 -40.27734375 10.8203125 C-41.60282227 10.55927734 -41.60282227 10.55927734 -42.95507812 10.29296875 C-46.87250519 9.48863011 -49.46076911 8.94802893 -52.83984375 6.6953125 C-52.59857658 3.43820565 -51.63715047 2.49261922 -49.27734375 0.1328125 C-36.28018305 -9.9968691 -13.0088772 -9.22497874 0 0 Z " fill="#F0F0F0" transform="translate(525.83984375,741.3046875)"/>
  <path d="M0 0 C3.4375 1.75 3.4375 1.75 6 4 C6.78375 4.515625 7.5675 5.03125 8.375 5.5625 C10.71580163 9.07370245 10.78840359 12.06521811 10.66015625 16.23046875 C9.66394671 20.40983305 7.37596181 22.22012379 4.04296875 24.7578125 C-0.6827972 27.63122277 -5.63424665 27.59433461 -11 27 C-15.83831756 24.6704397 -18.6006196 21.79876079 -21 17 C-21.65606763 12.86677393 -21.96334653 10.58796798 -19.7890625 7.00390625 C-14.15209424 0.12222673 -8.75205322 -1.04160866 0 0 Z " fill="#EEEEEE" transform="translate(379,635)"/>
  <path d="M0 0 C3.4375 1.75 3.4375 1.75 6 4 C6.78375 4.515625 7.5675 5.03125 8.375 5.5625 C10.71580163 9.07370245 10.78840359 12.06521811 10.66015625 16.23046875 C9.66394671 20.40983305 7.37596181 22.22012379 4.04296875 24.7578125 C-0.65556586 27.61466529 -5.66577226 27.83519666 -11 27 C-15.10129469 24.97985815 -18.10325738 22.45720675 -20.5 18.5625 C-22.0397878 10.67108753 -22.0397878 10.67108753 -19.796875 7.06640625 C-14.11032598 0.15925959 -8.83569155 -1.05156271 0 0 Z " fill="#EFEFEF" transform="translate(635,635)"/>
  <path d="M0 0 C0.66 0.33 1.32 0.66 2 1 C0.29657414 2.90044131 -1.41247117 4.79528874 -3.125 6.6875 C-3.599375 7.21794922 -4.07375 7.74839844 -4.5625 8.29492188 C-7.81499131 11.87705758 -11.22047225 14.97749932 -15 18 C-15 13.50219131 -12.27261159 11.41945138 -9.375 8.1875 C-8 7 -8 7 -6 7 C-6 6.34 -6 5.68 -6 5 C-4.04072937 3.2856382 -2.04119788 1.61594832 0 0 Z " fill="#7E7E7E" transform="translate(130,578)"/>
  <path d="M0 0 C0.33 0.66 0.66 1.32 1 2 C1.69971924 2.02505615 2.39943848 2.0501123 3.12036133 2.07592773 C6.35119418 2.19337867 9.58183902 2.31541636 12.8125 2.4375 C14.46282227 2.49647461 14.46282227 2.49647461 16.14648438 2.55664062 C23.12503863 2.8242548 30.05249661 3.28839823 37 4 C37 4.33 37 4.66 37 5 C24.3141797 5.20100772 11.66894665 4.58707468 -1 4 C-0.67 2.68 -0.34 1.36 0 0 Z " fill="#CBCBCB" transform="translate(769,418)"/>
  <path d="M0 0 C0.33 0.66 0.66 1.32 1 2 C4.27555608 2.47001033 4.27555608 2.47001033 8.0625 2.625 C9.99802734 2.73714844 9.99802734 2.73714844 11.97265625 2.8515625 C13.47119141 2.92503906 13.47119141 2.92503906 15 3 C15 3.33 15 3.66 15 4 C9.72 4 4.44 4 -1 4 C-0.67 2.68 -0.34 1.36 0 0 Z " fill="#848484" transform="translate(769,418)"/>
  <path d="M0 0 C0.66 0.33 1.32 0.66 2 1 C-0.64 3.64 -3.28 6.28 -6 9 C-6.66 8.34 -7.32 7.68 -8 7 C-5.36 4.69 -2.72 2.38 0 0 Z " fill="#D4D4D4" transform="translate(539,829)"/>
</svg>